<?xml version="1.0" encoding="UTF-8" ?>
<!DOCTYPE svg PUBLIC "-//W3C//DTD SVG 1.1//EN" "http://www.w3.org/Graphics/SVG/1.1/DTD/svg11.dtd">
<svg width="604pt" height="649pt" viewBox="0 0 604 649" version="1.1" xmlns="http://www.w3.org/2000/svg">
<g id="#090909ff">
<path fill="#090909" opacity="1.00" d=" M 284.32 321.48 C 288.10 320.50 292.19 321.19 296.09 321.03 C 299.25 320.78 302.24 323.76 301.96 326.94 C 302.05 330.62 301.97 334.32 302.00 338.01 C 309.33 340.09 316.74 343.10 321.88 348.96 C 326.38 353.98 330.33 360.75 328.75 367.72 C 326.65 370.28 322.95 369.60 320.03 369.81 C 316.14 369.62 311.92 370.61 308.31 368.78 C 305.81 365.55 304.89 360.97 300.99 358.94 C 294.31 355.19 284.76 355.48 279.18 361.12 C 274.39 365.83 274.70 374.87 280.44 378.70 C 286.86 383.10 294.86 383.68 302.21 385.56 C 310.54 387.52 319.29 390.20 325.27 396.69 C 332.72 403.93 334.25 415.29 332.34 425.10 C 330.25 435.41 322.61 444.06 313.07 448.24 C 309.97 449.73 306.58 450.44 303.35 451.60 C 301.40 452.15 302.18 454.57 302.00 456.07 C 301.79 460.04 303.40 465.68 298.88 467.82 C 294.07 468.31 289.11 468.54 284.35 467.70 C 279.35 464.19 282.20 457.20 281.05 452.11 C 271.96 449.74 262.65 445.89 256.68 438.31 C 253.15 433.97 250.61 428.62 250.00 423.04 C 249.61 421.42 250.76 420.18 252.08 419.47 C 256.37 418.90 260.71 419.39 265.03 419.21 C 267.59 419.29 270.38 418.80 272.72 420.12 C 275.01 422.98 275.73 427.04 278.94 429.20 C 285.50 433.92 294.83 434.35 302.04 430.86 C 308.30 427.75 310.79 419.36 307.77 413.17 C 306.22 409.52 302.57 407.35 298.90 406.30 C 288.94 403.47 278.44 402.32 268.99 397.88 C 262.88 395.06 257.63 390.19 254.84 384.01 C 249.98 373.28 251.25 359.85 258.55 350.51 C 263.95 343.46 272.52 339.73 281.00 337.91 C 281.73 332.53 279.20 325.20 284.32 321.48 Z" />
</g>
<g id="#13bb67ff">
<path fill="#13bb67" opacity="1.00" d=" M 568.36 16.43 C 572.83 15.07 577.13 12.78 581.91 12.83 C 582.95 13.91 583.99 14.99 585.04 16.07 C 585.32 25.82 583.33 35.43 582.79 45.14 C 580.64 65.77 578.81 86.42 576.81 107.07 C 576.27 111.94 569.02 113.94 566.21 109.80 C 562.46 104.81 559.10 99.52 555.37 94.50 C 553.42 91.88 551.69 88.28 548.01 87.97 C 544.67 89.93 542.50 93.31 539.89 96.09 C 512.22 127.72 484.55 159.36 456.88 190.99 C 454.20 193.96 451.80 197.22 448.84 199.93 C 446.67 200.63 445.11 197.98 445.02 196.12 C 444.96 186.08 445.01 176.04 445.01 166.00 C 445.52 158.10 447.37 149.80 452.76 143.71 C 474.13 119.71 495.40 95.62 516.67 71.53 C 519.24 69.06 517.12 65.07 514.45 63.70 C 508.29 60.93 501.72 59.18 495.58 56.38 C 492.38 54.89 489.53 51.72 489.91 47.97 C 489.59 44.71 492.43 42.19 495.30 41.29 C 519.63 32.95 544.06 24.86 568.36 16.43 Z" />
<path fill="#13bb67" opacity="1.00" d=" M 538.83 144.91 C 540.85 142.83 542.71 139.50 546.07 139.87 C 549.83 139.60 552.06 143.67 551.99 146.97 C 552.01 275.31 552.00 403.66 552.00 532.00 C 551.47 550.36 546.71 568.95 536.25 584.24 C 525.59 600.05 509.07 611.51 490.94 617.10 C 477.55 621.28 463.28 621.97 449.40 620.47 C 427.62 617.81 407.10 606.74 392.77 590.14 C 371.25 564.98 350.09 539.50 328.68 514.24 C 355.22 505.30 378.44 487.23 394.18 464.12 C 397.48 459.49 400.08 454.40 403.36 449.76 C 410.83 459.48 419.14 468.54 426.86 478.06 C 434.56 486.99 441.91 496.22 449.75 505.02 C 450.58 505.01 452.23 505.00 453.05 504.99 C 453.59 488.33 453.10 471.66 453.29 454.99 C 453.24 387.33 453.34 319.67 453.22 252.02 C 453.35 245.85 454.49 239.39 458.25 234.34 C 462.27 229.08 467.03 224.46 471.39 219.49 C 493.77 194.54 516.37 169.78 538.83 144.91 Z" />
<path fill="#13bb67" opacity="1.00" d=" M 369.78 170.00 C 369.81 161.46 378.07 155.55 385.83 154.24 C 392.91 153.49 400.59 153.31 407.01 156.87 C 412.52 159.79 415.88 165.88 415.97 172.05 C 415.92 234.36 415.97 296.67 415.95 358.99 C 415.88 363.22 416.46 367.78 414.40 371.67 C 411.81 360.36 408.42 349.17 403.28 338.75 C 395.18 322.41 383.89 307.60 370.16 295.60 C 369.50 293.12 369.86 290.51 369.79 287.98 C 369.78 248.66 369.77 209.33 369.78 170.00 Z" />
<path fill="#13bb67" opacity="1.00" d=" M 48.93 186.90 C 64.75 171.36 87.23 164.22 109.05 163.70 C 131.73 162.60 154.86 169.11 173.11 182.76 C 181.81 189.03 189.05 197.04 195.64 205.43 C 214.47 228.52 233.14 251.75 252.10 274.73 C 248.24 276.78 244.09 278.21 240.21 280.20 C 230.04 285.17 220.57 291.52 211.98 298.87 C 199.37 309.92 189.36 323.67 181.61 338.48 C 178.22 335.83 175.81 332.21 172.94 329.06 C 158.10 311.90 143.49 294.54 128.54 277.48 C 126.60 275.05 123.09 275.87 121.00 277.63 C 121.00 363.10 121.00 448.56 121.00 534.03 C 121.15 545.42 120.48 556.99 117.19 567.96 C 112.63 582.89 103.63 596.63 91.01 605.95 C 79.38 614.34 65.24 618.97 50.99 620.00 C 44.63 620.00 38.27 620.08 31.91 619.97 C 26.48 619.63 22.87 614.12 23.00 609.00 C 23.00 489.68 23.00 370.36 23.00 251.04 C 21.68 227.23 32.10 203.50 48.93 186.90 Z" />
<path fill="#13bb67" opacity="1.00" d=" M 299.76 205.82 C 301.89 200.19 307.03 195.84 312.99 194.91 C 317.97 194.33 323.00 194.64 327.99 194.75 C 334.51 194.71 340.29 199.47 342.69 205.34 C 344.47 209.28 344.54 213.71 344.59 217.97 C 344.52 233.30 344.66 248.63 344.58 263.96 C 344.50 268.73 344.90 273.54 344.05 278.26 C 331.66 272.75 318.41 269.03 304.89 267.79 C 302.60 267.54 300.33 267.21 298.06 266.86 C 297.92 251.91 298.04 236.96 298.00 222.00 C 298.05 216.58 297.45 210.91 299.76 205.82 Z" />
<path fill="#13bb67" opacity="1.00" d=" M 279.33 299.48 C 292.94 298.09 306.94 298.84 320.01 303.15 C 339.61 309.34 357.04 322.17 368.94 338.92 C 390.49 368.62 391.56 410.85 373.32 442.38 C 363.40 460.00 347.60 474.25 328.92 482.04 C 313.47 488.86 296.13 490.57 279.48 488.41 C 256.40 485.32 234.91 472.82 220.19 454.88 C 194.58 424.41 191.12 377.64 211.62 343.60 C 225.72 319.42 251.64 302.93 279.33 299.48 M 284.32 321.48 C 279.20 325.20 281.73 332.53 281.00 337.91 C 272.52 339.73 263.95 343.46 258.55 350.51 C 251.25 359.85 249.98 373.28 254.84 384.01 C 257.63 390.19 262.88 395.06 268.99 397.88 C 278.44 402.32 288.94 403.47 298.90 406.30 C 302.57 407.35 306.22 409.52 307.77 413.17 C 310.79 419.36 308.30 427.75 302.04 430.86 C 294.83 434.35 285.50 433.92 278.94 429.20 C 275.73 427.04 275.01 422.98 272.72 420.12 C 270.38 418.80 267.59 419.29 265.03 419.21 C 260.71 419.39 256.37 418.90 252.08 419.47 C 250.76 420.18 249.61 421.42 250.00 423.04 C 250.61 428.62 253.15 433.97 256.68 438.31 C 262.65 445.89 271.96 449.74 281.05 452.11 C 282.20 457.20 279.35 464.19 284.35 467.70 C 289.11 468.54 294.07 468.31 298.88 467.82 C 303.40 465.68 301.79 460.04 302.00 456.07 C 302.18 454.57 301.40 452.15 303.35 451.60 C 306.58 450.44 309.97 449.73 313.07 448.24 C 322.61 444.06 330.25 435.41 332.34 425.10 C 334.25 415.29 332.72 403.93 325.27 396.69 C 319.29 390.20 310.54 387.52 302.21 385.56 C 294.86 383.68 286.86 383.10 280.44 378.70 C 274.70 374.87 274.39 365.83 279.18 361.12 C 284.76 355.48 294.31 355.19 300.99 358.94 C 304.89 360.97 305.81 365.55 308.31 368.78 C 311.92 370.61 316.14 369.62 320.03 369.81 C 322.95 369.60 326.65 370.28 328.75 367.72 C 330.33 360.75 326.38 353.98 321.88 348.96 C 316.74 343.10 309.33 340.09 302.00 338.01 C 301.97 334.32 302.05 330.62 301.96 326.94 C 302.24 323.76 299.25 320.78 296.09 321.03 C 292.19 321.19 288.10 320.50 284.32 321.48 Z" />
</g>
</svg>
