<?xml version="1.0" encoding="UTF-8" ?>
<svg width="1024pt" height="1024pt" viewBox="0 0 1024 1024" version="1.1" xmlns="http://www.w3.org/2000/svg">
<g id="#090909ff">
<path fill="#090909" opacity="1.00" d=" M 502.00 491.91 C 502.63 486.27 500.21 478.69 505.87 474.99 C 509.60 475.03 513.33 474.95 517.06 475.03 C 520.23 474.77 523.23 477.74 522.96 480.93 C 523.05 484.62 522.97 488.31 523.00 492.00 C 530.34 494.10 537.78 497.11 542.93 503.00 C 547.40 508.01 551.24 514.70 549.82 521.65 C 547.70 524.28 543.93 523.58 540.97 523.81 C 537.12 523.64 532.97 524.53 529.37 522.83 C 526.83 519.65 525.93 515.07 522.09 513.00 C 515.39 509.16 505.74 509.46 500.15 515.16 C 495.80 519.52 495.61 527.53 500.27 531.74 C 504.21 535.20 509.48 536.48 514.47 537.64 C 524.75 540.01 536.01 541.59 544.26 548.77 C 556.33 558.75 556.90 578.07 548.44 590.52 C 543.93 596.86 537.26 601.57 529.84 603.86 C 527.62 604.63 525.24 605.03 523.22 606.25 C 522.61 610.40 523.50 614.64 522.75 618.78 C 521.91 620.61 520.18 622.23 518.04 622.06 C 513.83 622.21 509.54 622.53 505.38 621.72 C 500.37 618.24 503.15 611.22 502.06 606.12 C 492.00 603.57 481.74 598.90 475.88 589.93 C 473.22 585.54 470.71 580.54 471.09 575.28 C 473.04 572.21 477.06 573.50 480.09 573.23 C 484.58 573.59 489.37 572.38 493.65 574.08 C 496.00 576.91 496.72 580.99 499.91 583.18 C 506.44 587.90 515.71 588.34 522.92 584.92 C 530.19 581.44 532.32 570.95 527.28 564.76 C 524.04 560.84 518.74 559.96 514.07 558.81 C 503.53 556.27 492.09 554.69 483.35 547.73 C 470.72 537.45 469.73 516.95 479.59 504.46 C 484.99 497.44 493.54 493.74 502.00 491.91 Z" />
</g>
<g id="#13bb67ff">
<path fill="#13bb67" opacity="1.00" d=" M 786.49 171.44 C 791.91 169.79 797.11 167.03 802.87 166.79 C 803.92 167.89 804.99 168.99 806.05 170.10 C 806.33 179.13 804.54 188.05 803.97 197.05 C 801.81 218.34 799.88 239.65 797.81 260.95 C 797.39 265.91 790.03 267.98 787.21 263.79 C 783.43 258.81 780.09 253.51 776.37 248.49 C 774.42 245.90 772.71 242.31 769.06 241.98 C 767.28 242.78 766.03 244.35 764.71 245.72 C 733.45 281.44 702.22 317.20 670.94 352.90 C 669.08 355.75 665.92 352.56 666.03 350.14 C 665.95 340.09 666.01 330.04 666.01 320.00 C 666.50 312.11 668.37 303.84 673.73 297.75 C 695.11 273.72 716.42 249.62 737.69 225.50 C 740.44 222.76 737.74 218.46 734.71 217.34 C 728.98 214.94 722.99 213.16 717.28 210.71 C 713.81 209.27 710.51 206.04 710.90 202.00 C 710.60 198.73 713.42 196.19 716.31 195.28 C 739.68 187.29 763.12 179.48 786.49 171.44 Z" />
<path fill="#13bb67" opacity="1.00" d=" M 762.77 295.69 C 766.58 291.16 773.67 295.49 772.99 300.89 C 773.02 424.93 772.99 548.98 773.00 673.02 C 773.26 685.37 772.90 697.85 769.79 709.88 C 765.33 727.93 755.24 744.84 740.39 756.23 C 718.02 774.09 687.11 779.12 659.63 772.42 C 641.66 767.99 625.32 757.64 613.30 743.60 C 591.94 718.62 570.97 693.29 549.66 668.26 C 576.61 659.15 600.17 640.68 615.91 617.04 C 618.89 612.72 621.36 608.07 624.33 603.75 C 635.50 617.79 647.40 631.24 658.82 645.08 C 662.91 649.68 666.57 654.67 670.87 659.08 C 671.67 659.05 673.27 659.00 674.06 658.97 C 674.58 641.32 674.11 623.65 674.29 606.00 C 674.25 543.66 674.32 481.32 674.25 418.98 C 674.40 411.21 673.47 403.25 675.67 395.69 C 677.71 388.29 683.79 383.15 688.67 377.60 C 713.29 350.22 738.05 322.97 762.77 295.69 Z" />
<path fill="#13bb67" opacity="1.00" d=" M 601.87 309.73 C 606.95 307.47 612.61 307.72 618.03 307.97 C 625.02 308.42 632.32 312.01 635.28 318.66 C 637.73 323.79 636.84 329.57 636.95 335.05 C 636.93 394.01 636.97 452.98 636.95 511.94 C 636.94 516.57 637.40 521.42 635.48 525.77 C 631.71 509.18 625.80 492.91 616.28 478.70 C 609.15 467.97 600.95 457.77 590.93 449.60 C 590.57 408.07 590.89 366.53 590.76 324.99 C 590.25 318.06 595.71 312.07 601.87 309.73 Z" />
<path fill="#13bb67" opacity="1.00" d=" M 313.97 319.30 C 334.66 315.81 356.56 317.44 375.84 326.12 C 389.51 332.12 401.61 341.46 411.23 352.84 C 431.92 378.08 452.33 403.56 473.09 428.73 C 456.71 435.67 440.94 444.66 428.26 457.30 C 417.72 467.45 409.40 479.68 402.54 492.55 C 394.74 484.65 387.95 475.80 380.60 467.48 C 370.15 455.55 360.06 443.31 349.52 431.47 C 347.57 429.05 344.01 429.84 342.00 431.73 C 342.01 517.13 342.00 602.54 342.00 687.94 C 342.14 699.40 341.49 711.04 338.15 722.07 C 333.53 737.16 324.35 751.03 311.48 760.33 C 299.95 768.46 286.04 772.98 272.02 774.00 C 265.64 774.01 259.26 774.08 252.89 773.96 C 247.48 773.61 243.90 768.15 244.01 763.05 C 243.99 640.71 244.01 518.37 244.00 396.03 C 245.55 375.10 255.38 354.94 270.46 340.40 C 282.25 328.94 297.94 322.22 313.97 319.30 Z" />
<path fill="#13bb67" opacity="1.00" d=" M 528.00 351.14 C 533.99 347.43 541.31 348.83 547.96 348.70 C 554.30 348.37 560.30 352.40 563.05 357.99 C 565.40 362.24 565.55 367.22 565.58 371.95 C 565.51 386.96 565.65 401.97 565.57 416.99 C 565.51 422.08 565.85 427.20 565.09 432.26 C 555.47 428.01 545.37 424.80 535.00 423.01 C 529.73 422.00 524.35 421.76 519.05 420.88 C 518.92 404.28 519.05 387.67 518.99 371.07 C 518.50 363.56 521.22 355.11 528.00 351.14 Z" />
<path fill="#13bb67" opacity="1.00" d=" M 500.42 453.46 C 512.34 452.30 524.55 452.63 536.19 455.75 C 552.89 460.06 568.34 469.13 580.34 481.51 C 594.75 495.92 604.06 515.31 606.37 535.54 C 610.38 566.36 598.89 598.94 575.62 619.72 C 558.65 634.96 535.85 643.88 512.97 643.23 C 479.57 643.66 447.43 623.73 431.47 594.65 C 413.29 562.14 415.51 518.96 438.23 489.18 C 453.06 469.55 476.04 456.51 500.42 453.46 M 502.00 491.91 C 493.54 493.74 484.99 497.44 479.59 504.46 C 469.73 516.95 470.72 537.45 483.35 547.73 C 492.09 554.69 503.53 556.27 514.07 558.81 C 518.74 559.96 524.04 560.84 527.28 564.76 C 532.32 570.95 530.19 581.44 522.92 584.92 C 515.71 588.34 506.44 587.90 499.91 583.18 C 496.72 580.99 496.00 576.91 493.65 574.08 C 489.37 572.38 484.58 573.59 480.09 573.23 C 477.06 573.50 473.04 572.21 471.09 575.28 C 470.71 580.54 473.22 585.54 475.88 589.93 C 481.74 598.90 492.00 603.57 502.06 606.12 C 503.15 611.22 500.37 618.24 505.38 621.72 C 509.54 622.53 513.83 622.21 518.04 622.06 C 520.18 622.23 521.91 620.61 522.75 618.78 C 523.50 614.64 522.61 610.40 523.22 606.25 C 525.24 605.03 527.62 604.63 529.84 603.86 C 537.26 601.57 543.93 596.86 548.44 590.52 C 556.90 578.07 556.33 558.75 544.26 548.77 C 536.01 541.59 524.75 540.01 514.47 537.64 C 509.48 536.48 504.21 535.20 500.27 531.74 C 495.61 527.53 495.80 519.52 500.15 515.16 C 505.74 509.46 515.39 509.16 522.09 513.00 C 525.93 515.07 526.83 519.65 529.37 522.83 C 532.97 524.53 537.12 523.64 540.97 523.81 C 543.93 523.58 547.70 524.28 549.82 521.65 C 551.24 514.70 547.40 508.01 542.93 503.00 C 537.78 497.11 530.34 494.10 523.00 492.00 C 522.97 488.31 523.05 484.62 522.96 480.93 C 523.23 477.74 520.23 474.77 517.06 475.03 C 513.33 474.95 509.60 475.03 505.87 474.99 C 500.21 478.69 502.63 486.27 502.00 491.91 Z" />
</g>
</svg>
